
<svg id="Layer_1" enable-background="new 0 0 496 496" height="512" viewBox="0 0 496 496" width="512" xmlns="http://www.w3.org/2000/svg"><path d="m177.966 70.392c0-38.76 31.534-70.294 70.293-70.294s70.293 31.534 70.293 70.294-31.534 70.293-70.293 70.293-70.293-31.534-70.293-70.293zm-22.966 187.315h186c8.836 0 16-7.163 16-16v-31.468c0-17.106-10.093-32.667-25.714-39.642l-36.398-16.252c-4.377-1.955.041-1.391-87.253-1.391-4.571 0-3.448.018-42.921 17.643-15.621 6.975-25.714 22.536-25.714 39.642v31.468c0 8.837 7.164 16 16 16zm295 114.246v-20.051c0-26.467-21.533-48-48-48h-138v-17c0-8.837-7.164-16-16-16s-16 7.163-16 16v17h-138c-26.467 0-48 21.533-48 48v20.051c-25.542 1.053-46 22.152-46 47.949v28c0 26.468 21.533 48 48 48h28c26.467 0 48-21.532 48-48v-28c0-25.797-20.458-46.896-46-47.949v-20.051c0-8.822 7.178-16 16-16h138v36.051c-25.542 1.053-46 22.152-46 47.949v28c0 26.468 21.533 48 48 48h28c26.467 0 48-21.532 48-48v-28c0-25.797-20.458-46.896-46-47.949v-36.051h138c8.822 0 16 7.178 16 16v20.051c-25.542 1.053-46 22.152-46 47.949v28c0 26.468 21.533 48 48 48h28c26.467 0 48-21.532 48-48v-28c0-25.797-20.458-46.896-46-47.949z"/></svg>