<svg width="1539" height="1065" viewBox="0 0 1539 1065" fill="none" xmlns="http://www.w3.org/2000/svg">
<g clip-path="url(#clip0)">
<path d="M1260.99 135.85H797.01V427.31H1260.99V135.85Z" fill="#F2F6F9"/>
<path d="M1226.68 171.02V392.15H831.33V171.02H1226.68ZM1234.68 163.02H823.33V400.15H1234.68V163.02Z" fill="#E2E6E8"/>
<path d="M695.08 710.93H482.77V932.26H695.08V710.93Z" fill="#F2F6F9"/>
<path d="M1206.08 784.67H922.57V917.09H1206.08V784.67Z" fill="#F2F6F9"/>
<path d="M362.38 118.32H74.77V437.7H362.38V118.32Z" fill="#F2F6F9"/>
<path d="M730.62 16.7798H422.77V350.08H730.62V16.7798Z" fill="#F2F6F9"/>
<path d="M745.85 405.93H438.16V665.7H745.85V405.93Z" fill="#F2F6F9"/>
<path d="M1538.91 324.62H1327.38V541.29H1538.91V324.62Z" fill="#F2F6F9"/>
<path d="M1442.77 104.78H1333.23V272.16H1442.77V104.78Z" fill="#F2F6F9"/>
<path d="M1187.18 0H870.82V104.62H1187.18V0Z" fill="#F2F6F9"/>
<path d="M1442.76 621.7H1327.38V864.16H1442.76V621.7Z" fill="#F2F6F9"/>
<path d="M1275.39 486.32H973.85V739.22H1275.39V486.32Z" fill="#F2F6F9"/>
<path d="M346.95 493.58H0V711.2H346.95V493.58Z" fill="#F2F6F9"/>
<path d="M304.38 532.31V672.48H42.5801V532.31H304.38ZM315.38 521.31H31.5801V683.48H315.38V521.31Z" fill="#E2E6E8"/>
<path d="M1211.46 542.7V682.85H1037.77V542.7H1211.46ZM1222.46 531.7H1026.77V693.85H1222.46V531.7Z" fill="#E2E6E8"/>
<path d="M688.69 458.06V613.57H495.32V458.06H688.69ZM699.69 447.06H484.32V624.57H699.69V447.06Z" fill="#E2E6E8"/>
<path d="M290.38 195.7V360.32H146.77V195.7H290.37H290.38ZM315.37 170.7H121.77V385.32H315.37V170.7Z" fill="#E2E6E8"/>
<path d="M687.08 61.5898V305.27H466.31V61.5898H687.08ZM695.08 53.5898H458.31V313.27H695.08V53.5898Z" fill="#E2E6E8"/>
<path d="M635.85 770.51V872.7H542V770.51H635.85ZM651.85 754.51H526V888.7H651.85V754.51Z" fill="#E2E6E8"/>
<path d="M1410.83 657.11V828.75H1359.33V657.11H1410.83ZM1413.83 654.11H1356.33V831.75H1413.83V654.11Z" fill="#E2E6E8"/>
<path d="M1148.29 34.04V70.57H909.71V34.04H1148.29ZM1151.29 31.04H906.71V73.57H1151.29V31.04Z" fill="#E2E6E8"/>
<path d="M1473.64 389.33V476.58H1392.64V389.33H1473.64ZM1490.64 372.33H1375.64V493.58H1490.64V372.33Z" fill="#E2E6E8"/>
<path d="M435.7 762.01H233.85V881.18H435.7V762.01Z" fill="#F2F6F9"/>
<path d="M695.08 1064.7C1015.58 1064.7 1275.39 1061.59 1275.39 1057.75C1275.39 1053.91 1015.58 1050.8 695.08 1050.8C374.584 1050.8 114.77 1053.91 114.77 1057.75C114.77 1061.59 374.584 1064.7 695.08 1064.7Z" fill="#E4EFF7"/>
<path d="M815.41 803.08L743.21 1057.44" stroke="#475056" stroke-width="5" stroke-miterlimit="10"/>
<path d="M876.41 803.08L804.21 1057.44" stroke="#475056" stroke-width="5" stroke-miterlimit="10"/>
<path d="M964.21 803.08L1036.41 1057.44" stroke="#475056" stroke-width="5" stroke-miterlimit="10"/>
<path d="M1025.21 803.08L1097.41 1057.44" stroke="#475056" stroke-width="5" stroke-miterlimit="10"/>
<path d="M847.4 358.2C870.839 358.2 889.84 333.934 889.84 304C889.84 274.066 870.839 249.8 847.4 249.8C823.961 249.8 804.96 274.066 804.96 304C804.96 333.934 823.961 358.2 847.4 358.2Z" fill="#24272D"/>
<path d="M528.88 593.91C528.88 576.91 549.78 563.23 575.56 563.23C601.34 563.23 622.23 576.96 622.23 593.91" fill="#72A065"/>
<path d="M521.89 550.11H647.59V563.23H529.18C527.84 563.227 526.513 562.96 525.276 562.445C524.039 561.929 522.915 561.175 521.97 560.225C521.024 559.275 520.275 558.148 519.766 556.908C519.256 555.668 518.996 554.34 519 553C519.008 552.236 519.315 551.505 519.855 550.965C520.395 550.425 521.126 550.118 521.89 550.11Z" fill="#EA6F57"/>
<path d="M638.21 579.24H574.51C570.461 579.24 567.18 582.522 567.18 586.57V586.58C567.18 590.628 570.461 593.91 574.51 593.91H638.21C642.258 593.91 645.54 590.628 645.54 586.58V586.57C645.54 582.522 642.258 579.24 638.21 579.24Z" fill="#EA6F57"/>
<path d="M581.23 552.67H674.151V581.8H598.461C593.891 581.8 589.508 579.985 586.277 576.753C583.046 573.522 581.23 569.14 581.23 564.57V552.67Z" fill="#EA6F57"/>
<path d="M1050.98 499.03H994.77V593.8H1098.99C1128.11 593.8 1142.48 558.38 1121.57 538.12C1082.46 500.21 1033.02 454.88 1008.93 443.24C965.65 422.32 894.67 420.67 863.49 428.06C832.31 435.45 762.57 510.06 762.57 510.06L632.1 528.57V595.57H751.91C766.933 595.571 781.738 591.966 795.08 585.06L849.54 556.9C849.54 556.9 879.9 603.9 887.69 638.03H1031.92C1031.92 638.03 1022.77 570.32 1020.21 531.7" fill="white"/>
<path d="M719.51 537.07L683.72 483.47L647.92 537.07H719.51Z" fill="#FFC774"/>
<path d="M1110.8 537.07L1075.01 483.47L1039.22 537.07H1110.8Z" fill="#FFC774"/>
<path d="M847.15 537.07L811.36 483.47L775.57 537.07H847.15Z" fill="#FFC774"/>
<path d="M974.8 537.07L939 483.47L903.21 537.07H974.8Z" fill="#FFC774"/>
<path d="M913.46 463.06L877.66 409.47L841.87 463.06H913.46Z" fill="#FFC774"/>
<path d="M784.22 619.19L748.42 565.6L712.63 619.19H784.22Z" fill="#FFC774"/>
<path d="M913.46 619.19L877.66 565.6L841.87 619.19H913.46Z" fill="#FFC774"/>
<path d="M1048.86 619.19L1013.07 565.6L977.27 619.19H1048.86Z" fill="#FFC774"/>
<path d="M994.77 593.8H1098.99C1128.11 593.8 1142.48 558.38 1121.57 538.12C1082.46 500.21 1033.02 454.88 1008.93 443.24C965.65 422.32 894.67 420.67 863.49 428.06C832.31 435.45 762.57 510.06 762.57 510.06L632.1 528.57V595.57H751.91C766.933 595.571 781.738 591.966 795.08 585.06L849.54 556.9C849.54 556.9 879.9 603.9 887.69 638.03H1031.92C1031.92 638.03 1030.5 632.6 1026.38 593.93" stroke="#25282D" stroke-width="3" stroke-miterlimit="10"/>
<path d="M1050.97 499.03H994.77" stroke="#25282D" stroke-width="3" stroke-miterlimit="10"/>
<path d="M1061.84 758.01H778.46V805.09H1061.84V758.01Z" fill="#EA6F57"/>
<path d="M800.31 1057.75H923.27L938.77 1057.58L926.91 1007.79L871.28 1012.28L800.31 1057.75Z" fill="#72A065"/>
<path d="M519.39 987.35L625.2 1050.01L638.62 1057.75L664.62 986.62L608.62 980.46L519.39 987.35Z" fill="#72A065"/>
<path d="M911.441 454.18C905.129 454.177 898.99 452.115 893.957 448.307C888.924 444.499 885.27 439.153 883.551 433.08L856.61 338.01C855.525 334.332 855.179 330.475 855.594 326.662C856.009 322.85 857.176 319.157 859.027 315.799C860.879 312.44 863.378 309.482 866.38 307.096C869.383 304.71 872.829 302.943 876.518 301.898C880.208 300.852 884.069 300.549 887.877 301.006C891.684 301.462 895.364 302.67 898.702 304.558C902.04 306.446 904.97 308.977 907.323 312.006C909.676 315.034 911.406 318.499 912.411 322.2L939.35 417.27C940.389 420.935 940.696 424.768 940.252 428.551C939.809 432.334 938.625 435.992 936.768 439.318C934.911 442.643 932.417 445.57 929.428 447.931C926.44 450.293 923.015 452.042 919.35 453.08C916.776 453.805 914.115 454.175 911.441 454.18Z" fill="#EA6F57"/>
<path d="M884.94 411.97L879.88 413.37C873.988 414.999 867.81 415.31 861.785 414.28C855.759 413.25 850.034 410.905 845.018 407.412C840.002 403.919 835.817 399.363 832.762 394.068C829.706 388.774 827.855 382.871 827.34 376.78L824.77 346.61C823.943 336.865 826.576 327.141 832.207 319.146C837.838 311.15 846.107 305.394 855.56 302.89C866.227 300.066 877.579 301.595 887.119 307.141C896.658 312.686 903.605 321.793 906.43 332.46L914.04 361.23C916.844 371.815 915.361 383.079 909.913 392.578C904.466 402.077 895.492 409.045 884.94 411.97Z" fill="#EA6F57"/>
<path d="M845.13 350.08L837.96 376.65L848.45 376.85" stroke="#25282D" stroke-width="3" stroke-miterlimit="10"/>
<path d="M857.78 360.41C860.592 360.41 862.87 358.131 862.87 355.32C862.87 352.509 860.592 350.23 857.78 350.23C854.969 350.23 852.69 352.509 852.69 355.32C852.69 358.131 854.969 360.41 857.78 360.41Z" fill="#24272D"/>
<path d="M833.32 360.41C836.132 360.41 838.41 358.131 838.41 355.32C838.41 352.509 836.132 350.23 833.32 350.23C830.509 350.23 828.23 352.509 828.23 355.32C828.23 358.131 830.509 360.41 833.32 360.41Z" fill="#24272D"/>
<path d="M859.23 386.92C859.23 386.92 865.471 386.58 868.051 381.15" stroke="#25282D" stroke-width="3" stroke-miterlimit="10"/>
<path d="M1094.33 382.5C1099.94 448.38 1044.23 426.96 1044.23 426.96C1044.23 426.96 1079.83 499.27 1000.16 493.23C920.49 487.19 898.75 430.59 901.84 398.23C903.07 385.33 909.78 375.34 917.36 365.7C873.7 358.98 874.36 329.04 874.36 329.04C874.36 329.04 804.36 356.23 804.93 302.59C805.5 248.95 860.71 231.75 893.34 232.32C900.215 232.463 907.028 233.643 913.55 235.82C934.55 242.66 950.83 253.82 978.71 254.24C1055.71 255.46 1063.13 328.19 1063.13 328.19C1063.13 328.19 1090.54 337.92 1094.33 382.5Z" fill="#24272D"/>
<path d="M925.97 349.465C929.99 339.928 925.52 328.938 915.986 324.918C906.452 320.899 895.463 325.371 891.443 334.908L884.827 350.601C880.806 360.138 885.276 371.127 894.81 375.147C904.344 379.167 915.333 374.694 919.354 365.157L925.97 349.465Z" fill="#EA6F57"/>
<path d="M911.68 336.74L902.28 359" stroke="#25282D" stroke-width="3" stroke-miterlimit="10"/>
<path opacity="0.68" d="M931.77 510.04L979.31 462.5C991.268 450.54 1007.49 443.821 1024.4 443.82H1080.47L1090.7 433.58C1098.83 425.458 1109.85 420.893 1121.34 420.89H1157.54C1163.88 420.892 1169.96 423.412 1174.44 427.896C1178.93 432.379 1181.45 438.459 1181.45 444.8C1181.44 451.14 1178.92 457.219 1174.44 461.701C1169.95 466.182 1163.87 468.7 1157.53 468.7H1019.99C1011.52 468.699 1003.13 470.368 995.311 473.609C987.486 476.85 980.377 481.601 974.39 487.59L947.92 514.06" fill="#CBCFD3"/>
<path d="M1006.05 504.16H1048.51" stroke="white" stroke-width="3" stroke-miterlimit="10" stroke-linecap="square"/>
<path d="M1008.92 638.01H776.09C758.622 638.01 741.538 643.135 726.953 652.75C712.369 662.364 700.926 676.046 694.04 692.1L577.23 964.62L679.31 1012.62L796.08 758.01H1002.46L1008.92 638.01Z" fill="#274992"/>
<path d="M1008.93 638V758H944.08V1011.85H834.77V712.11C834.77 692.457 842.576 673.608 856.472 659.71C870.368 645.812 889.216 638.003 908.87 638H1008.93Z" fill="#274992"/>
<path d="M834.77 758.01V712.11C834.77 692.457 842.576 673.608 856.472 659.71C870.368 645.812 889.216 638.003 908.87 638" stroke="white" stroke-width="3" stroke-miterlimit="10" stroke-linecap="square"/>
<path d="M1012.85 624.57H1061.85V773.08H968V669.42C968 657.525 972.725 646.117 981.136 637.706C989.547 629.295 1000.96 624.57 1012.85 624.57Z" fill="#EA6F57"/>
<path d="M983.59 500.26H913.31V595.54H983.59V500.26Z" fill="#72A065"/>
<path d="M998.97 507.29H982.65C974.774 507.29 968.39 513.674 968.39 521.55V569.03C968.39 576.906 974.774 583.29 982.65 583.29H998.97C1006.85 583.29 1013.23 576.906 1013.23 569.03V521.55C1013.23 513.674 1006.85 507.29 998.97 507.29Z" fill="#72A065"/>
<path d="M983.59 518.83H991.17C992.638 518.829 994.092 519.117 995.449 519.677C996.806 520.238 998.039 521.06 999.078 522.098C1000.12 523.135 1000.94 524.366 1001.5 525.722C1002.07 527.078 1002.36 528.532 1002.36 530V560.55C1002.36 563.515 1001.18 566.359 999.085 568.456C996.989 570.552 994.145 571.73 991.18 571.73H983.6V518.83H983.59Z" fill="white"/>
<path d="M938.6 541.65L948.38 552.08L958.3 541.51" stroke="white" stroke-width="23" stroke-miterlimit="10" stroke-linecap="round"/>
<path d="M328.67 595.84L197.63 1057.44" stroke="#475056" stroke-width="5" stroke-miterlimit="10"/>
<path d="M470.59 595.84L339.56 1057.44" stroke="#475056" stroke-width="5" stroke-miterlimit="10"/>
<path d="M1141.56 595.37L1272.72 1057.44" stroke="#475056" stroke-width="5" stroke-miterlimit="10"/>
<path d="M999.49 595.37L1130.66 1057.44" stroke="#475056" stroke-width="5" stroke-miterlimit="10"/>
<path d="M994.21 516.36C989.01 520.98 987.36 567.93 994.21 571.36C1001.06 574.79 1037.85 568.91 1037.85 543.02C1037.85 517.13 1001.65 509.75 994.21 516.36Z" fill="#EA6F57"/>
<path d="M853.08 498.16L840.46 535.82L849.54 556.88" stroke="#25282D" stroke-width="3" stroke-miterlimit="10"/>
<path d="M651.85 297.39V500.47C651.85 503.652 650.585 506.705 648.335 508.955C646.084 511.205 643.032 512.47 639.85 512.47H631.85C635.032 512.47 638.084 511.205 640.335 508.955C642.585 506.705 643.85 503.652 643.85 500.47V297.39C643.85 294.207 642.585 291.155 640.335 288.904C638.084 286.654 635.032 285.39 631.85 285.39H639.85C643.032 285.39 646.084 286.654 648.335 288.904C650.585 291.155 651.85 294.207 651.85 297.39Z" fill="#24272D"/>
<path d="M631.85 285.39H266.31C259.683 285.39 254.31 290.762 254.31 297.39V500.47C254.31 507.097 259.683 512.47 266.31 512.47H631.85C638.477 512.47 643.85 507.097 643.85 500.47V297.39C643.85 290.762 638.477 285.39 631.85 285.39Z" fill="#72A065"/>
<path d="M457.08 377.31C468.888 377.31 478.46 367.738 478.46 355.93C478.46 344.122 468.888 334.55 457.08 334.55C445.272 334.55 435.7 344.122 435.7 355.93C435.7 367.738 445.272 377.31 457.08 377.31Z" fill="white"/>
<path d="M475.29 314.21C475.29 314.21 475.43 322.07 470.68 326.82C465.93 331.57 458.07 331.43 458.07 331.43C458.07 331.43 457.92 323.57 462.68 318.82C467.44 314.07 475.29 314.21 475.29 314.21Z" fill="white"/>
<path d="M431.36 595.55H352.38L411.17 410.42H490.15L431.36 595.55Z" fill="#72A065"/>
<path d="M378.76 512.47L411.17 410.42H490.15" stroke="white" stroke-width="3" stroke-miterlimit="10"/>
<path d="M457.75 512.47H490.15V410.42L457.75 512.47Z" fill="#24272D"/>
<path d="M485.64 581.8H383.9V593.9H485.64V581.8Z" fill="#72A065"/>
<path d="M209.54 595.55H1231.38" stroke="#475056" stroke-width="5" stroke-miterlimit="10"/>
<path d="M434.77 512.47C434.516 513.342 434.215 514.2 433.87 515.04C429.36 525.96 418.4 531.78 409.38 528.04C403.38 525.55 399.75 519.47 399.32 512.45C399.117 508.714 399.763 504.98 401.21 501.53C405.72 490.61 416.69 484.79 425.71 488.53C433.97 491.97 437.77 502.32 434.77 512.47Z" fill="white"/>
<path d="M434.77 512.47H399.27C399.067 508.734 399.713 505 401.16 501.55C405.67 490.63 416.64 484.81 425.66 488.55C433.97 491.97 437.77 502.32 434.77 512.47Z" fill="#24272D"/>
<path d="M541.581 585.55C545.894 585.55 549.391 582.053 549.391 577.74C549.391 573.426 545.894 569.93 541.581 569.93C537.267 569.93 533.771 573.426 533.771 577.74C533.771 582.053 537.267 585.55 541.581 585.55Z" fill="#72A065"/>
<path d="M774.77 758.01H796.08L797.01 739.21" stroke="white" stroke-width="3" stroke-miterlimit="10"/>
<path d="M921.85 754.51L944.08 758V736.16" stroke="white" stroke-width="3" stroke-miterlimit="10"/>
</g>
<defs>
<clipPath id="clip0">
<rect width="1538.92" height="1064.7" fill="white"/>
</clipPath>
</defs>
</svg>
