<svg version="1.0" xmlns="http://www.w3.org/2000/svg" width="373.000000pt" height="166.000000pt"
    viewBox="0 0 373.000000 166.000000" preserveAspectRatio="xMidYMid meet"
     class="logo-box"
     >
    <g>
    <g class="logo-base" transform="translate(0.000000,166.000000) scale(0.100000,-0.100000)" fill="red"
    stroke="none">
    <path d="M39 1621 c-49 -49 -37 -121 25 -146 46 -20 96 -5 120 36 56 94 -67
188 -145 110z m105 -43 c16 -26 -4 -52 -42 -56 -26 -3 -32 1 -38 23 -4 15 -1
31 7 41 16 19 59 14 73 -8z" />
    <path d="M232 1558 l3 -23 445 -5 445 -5 94 -33 c206 -72 364 -209 457 -397
26 -53 42 -74 52 -70 7 3 16 5 18 5 13 0 -1 41 -37 111 -86 165 -247 310 -419
378 -145 57 -188 61 -647 61 l-414 0 3 -22z" />
    <path d="M805 1440 c-17 -19 -31 -20 -359 -20 -305 0 -345 -2 -376 -18 -47
-23 -68 -77 -51 -132 23 -77 3 -74 561 -80 l495 -5 68 -32 c37 -18 91 -55 121
-83 36 -34 59 -48 70 -44 28 11 18 30 -44 87 -62 58 -138 99 -211 116 -26 6
-226 11 -490 11 -246 0 -460 3 -477 6 -42 9 -61 53 -38 89 l16 25 349 0 c335
0 349 -1 366 -20 25 -27 78 -26 104 2 19 19 27 21 104 15 46 -3 112 -15 146
-27 137 -46 274 -155 332 -265 19 -36 28 -44 44 -39 28 9 28 8 6 51 -31 62
-96 139 -159 188 -113 89 -235 136 -394 150 -47 5 -71 12 -84 26 -23 25 -75
25 -99 -1z" />
    <path d="M30 789 l0 -181 93 4 c145 6 198 48 205 162 9 134 -67 196 -238 196
l-60 0 0 -181z m184 111 c57 -21 84 -121 50 -179 -23 -39 -44 -49 -118 -57
l-66 -7 0 127 0 126 54 0 c30 0 66 -4 80 -10z" />
    <path d="M543 958 c-10 -17 -163 -339 -163 -345 0 -2 12 -3 28 -1 22 2 32 13
52 55 l25 53 70 0 70 0 24 -55 c21 -49 27 -55 53 -55 16 0 28 4 26 8 -27 68
-165 352 -170 352 -4 0 -10 -6 -15 -12z m47 -175 c0 -8 -13 -13 -35 -13 -40 0
-42 5 -18 55 l17 36 18 -33 c9 -18 17 -39 18 -45z" />
    <path d="M724 955 c-11 -28 4 -45 41 -45 l35 0 0 -150 0 -150 25 0 25 0 0 149
0 150 38 3 c32 3 37 7 40 31 l3 27 -101 0 c-80 0 -102 -3 -106 -15z" />
    <path d="M1012 800 c-45 -93 -82 -174 -82 -180 0 -5 11 -10 26 -10 21 0 29 9
50 55 l25 55 70 0 70 0 24 -55 c21 -46 29 -55 50 -55 14 0 25 4 25 8 0 17
-158 346 -167 349 -5 2 -46 -73 -91 -167z m128 -26 c0 -2 -18 -4 -40 -4 -22 0
-40 2 -40 5 0 3 9 24 21 47 l21 41 19 -43 c10 -23 19 -44 19 -46z" />
    <path d="M1340 790 l0 -180 90 0 c89 0 90 0 90 25 0 24 -2 25 -65 25 l-65 0 0
155 0 155 -25 0 -25 0 0 -180z" />
    <path d="M1584 957 c-2 -7 -3 -87 -2 -177 l3 -165 93 -3 92 -3 0 26 c0 24 -2
25 -65 25 l-65 0 0 155 0 155 -25 0 c-14 0 -28 -6 -31 -13z" />
    <path d="M1830 790 l0 -180 25 0 25 0 0 180 0 180 -25 0 -25 0 0 -180z" />
    <path d="M2065 953 c-74 -39 -112 -109 -101 -186 8 -53 63 -123 113 -143 113
-48 249 23 256 132 l2 39 -77 3 c-78 3 -78 3 -78 -23 0 -23 4 -25 44 -25 25 0
47 -4 51 -10 3 -5 -7 -23 -23 -40 -53 -61 -169 -47 -213 24 -52 86 10 196 111
196 34 0 96 -23 121 -45 14 -13 18 -13 34 5 18 20 18 21 -1 35 -70 56 -175 72
-239 38z" />
    <path d="M2420 790 l0 -180 105 0 105 0 0 25 c0 25 -1 25 -80 25 l-80 0 0 60
0 60 51 0 c47 0 50 2 47 23 -3 19 -10 22 -50 25 l-48 3 0 39 0 39 78 3 c76 3
77 3 80 31 l3 27 -105 0 -106 0 0 -180z" />
    <path d="M2710 790 l0 -180 25 0 25 0 0 115 c0 63 3 115 8 115 4 0 51 -52 106
-115 54 -63 102 -115 107 -115 5 0 9 81 9 180 l0 180 -25 0 -24 0 -3 -119 -3
-119 -103 119 c-57 65 -107 119 -113 119 -5 0 -9 -73 -9 -180z" />
    <path d="M3163 945 c-123 -74 -118 -252 9 -314 77 -37 167 -25 231 31 l28 24
-24 13 c-21 11 -28 9 -62 -13 -93 -64 -215 -6 -215 101 1 122 141 177 235 92
17 -15 23 -16 38 -4 16 11 17 16 5 34 -38 61 -170 80 -245 36z" />
    <path d="M3509 966 c-2 -2 -3 -83 -1 -180 l3 -176 99 0 c100 0 100 0 100 25 0
24 -2 25 -75 25 l-75 0 0 60 0 60 45 0 c41 0 45 2 45 25 0 23 -4 25 -45 25
l-45 0 0 40 0 39 78 3 c76 3 77 3 80 31 l3 27 -104 0 c-57 0 -106 -2 -108 -4z" />
    <path d="M1485 518 c-45 -75 -158 -177 -245 -221 -127 -64 -157 -67 -687 -67
l-473 0 -32 -29 c-29 -26 -33 -35 -33 -81 0 -46 4 -55 33 -81 l34 -30 511 4
c481 3 516 5 582 24 97 29 154 50 192 73 22 13 43 17 65 14 42 -7 88 26 88 63
0 17 16 41 49 74 80 79 192 263 175 290 -14 23 -42 7 -58 -32 -25 -61 -81
-145 -138 -205 -44 -47 -54 -53 -88 -51 -47 2 -80 -24 -80 -63 0 -24 -9 -31
-79 -64 -152 -71 -205 -77 -743 -74 l-472 3 -16 28 c-13 24 -13 30 0 55 l16
27 504 6 c473 5 509 6 565 26 164 55 301 163 381 299 l24 41 -23 10 c-20 10
-25 6 -52 -39z" />
    <path d="M1260 519 c-25 -22 -66 -51 -92 -65 -99 -51 -132 -54 -550 -54 l-388
0 0 -25 0 -25 388 0 c425 0 461 4 572 60 33 17 81 50 106 75 40 37 45 47 34
60 -17 20 -19 20 -70 -26z" />
    <path d="M39 441 c-40 -41 -40 -91 0 -132 43 -42 89 -40 130 6 34 39 38 60 19
100 -26 58 -103 71 -149 26z m95 -37 c21 -21 20 -37 -4 -59 -41 -37 -97 24
-58 63 17 17 44 15 62 -4z" />
</g>
<g class="logo-animate">
    <g  transform="translate(0.000000,166.000000) scale(0.100000,-0.100000)" fill="#000000"
        stroke="none">
        <path d="M39 1621 c-49 -49 -37 -121 25 -146 46 -20 96 -5 120 36 56 94 -67
188 -145 110z m105 -43 c16 -26 -4 -52 -42 -56 -26 -3 -32 1 -38 23 -4 15 -1
31 7 41 16 19 59 14 73 -8z" />
        <path d="M232 1558 l3 -23 445 -5 445 -5 94 -33 c206 -72 364 -209 457 -397
26 -53 42 -74 52 -70 7 3 16 5 18 5 13 0 -1 41 -37 111 -86 165 -247 310 -419
378 -145 57 -188 61 -647 61 l-414 0 3 -22z" />
        <path d="M805 1440 c-17 -19 -31 -20 -359 -20 -305 0 -345 -2 -376 -18 -47
-23 -68 -77 -51 -132 23 -77 3 -74 561 -80 l495 -5 68 -32 c37 -18 91 -55 121
-83 36 -34 59 -48 70 -44 28 11 18 30 -44 87 -62 58 -138 99 -211 116 -26 6
-226 11 -490 11 -246 0 -460 3 -477 6 -42 9 -61 53 -38 89 l16 25 349 0 c335
0 349 -1 366 -20 25 -27 78 -26 104 2 19 19 27 21 104 15 46 -3 112 -15 146
-27 137 -46 274 -155 332 -265 19 -36 28 -44 44 -39 28 9 28 8 6 51 -31 62
-96 139 -159 188 -113 89 -235 136 -394 150 -47 5 -71 12 -84 26 -23 25 -75
25 -99 -1z" />
        <path d="M30 789 l0 -181 93 4 c145 6 198 48 205 162 9 134 -67 196 -238 196
l-60 0 0 -181z m184 111 c57 -21 84 -121 50 -179 -23 -39 -44 -49 -118 -57
l-66 -7 0 127 0 126 54 0 c30 0 66 -4 80 -10z" />
        <path d="M543 958 c-10 -17 -163 -339 -163 -345 0 -2 12 -3 28 -1 22 2 32 13
52 55 l25 53 70 0 70 0 24 -55 c21 -49 27 -55 53 -55 16 0 28 4 26 8 -27 68
-165 352 -170 352 -4 0 -10 -6 -15 -12z m47 -175 c0 -8 -13 -13 -35 -13 -40 0
-42 5 -18 55 l17 36 18 -33 c9 -18 17 -39 18 -45z" />
        <path d="M724 955 c-11 -28 4 -45 41 -45 l35 0 0 -150 0 -150 25 0 25 0 0 149
0 150 38 3 c32 3 37 7 40 31 l3 27 -101 0 c-80 0 -102 -3 -106 -15z" />
        <path d="M1012 800 c-45 -93 -82 -174 -82 -180 0 -5 11 -10 26 -10 21 0 29 9
50 55 l25 55 70 0 70 0 24 -55 c21 -46 29 -55 50 -55 14 0 25 4 25 8 0 17
-158 346 -167 349 -5 2 -46 -73 -91 -167z m128 -26 c0 -2 -18 -4 -40 -4 -22 0
-40 2 -40 5 0 3 9 24 21 47 l21 41 19 -43 c10 -23 19 -44 19 -46z" />
        <path d="M1340 790 l0 -180 90 0 c89 0 90 0 90 25 0 24 -2 25 -65 25 l-65 0 0
155 0 155 -25 0 -25 0 0 -180z" />
        <path d="M1584 957 c-2 -7 -3 -87 -2 -177 l3 -165 93 -3 92 -3 0 26 c0 24 -2
25 -65 25 l-65 0 0 155 0 155 -25 0 c-14 0 -28 -6 -31 -13z" />
        <path d="M1830 790 l0 -180 25 0 25 0 0 180 0 180 -25 0 -25 0 0 -180z" />
        <path d="M2065 953 c-74 -39 -112 -109 -101 -186 8 -53 63 -123 113 -143 113
-48 249 23 256 132 l2 39 -77 3 c-78 3 -78 3 -78 -23 0 -23 4 -25 44 -25 25 0
47 -4 51 -10 3 -5 -7 -23 -23 -40 -53 -61 -169 -47 -213 24 -52 86 10 196 111
196 34 0 96 -23 121 -45 14 -13 18 -13 34 5 18 20 18 21 -1 35 -70 56 -175 72
-239 38z" />
        <path d="M2420 790 l0 -180 105 0 105 0 0 25 c0 25 -1 25 -80 25 l-80 0 0 60
0 60 51 0 c47 0 50 2 47 23 -3 19 -10 22 -50 25 l-48 3 0 39 0 39 78 3 c76 3
77 3 80 31 l3 27 -105 0 -106 0 0 -180z" />
        <path d="M2710 790 l0 -180 25 0 25 0 0 115 c0 63 3 115 8 115 4 0 51 -52 106
-115 54 -63 102 -115 107 -115 5 0 9 81 9 180 l0 180 -25 0 -24 0 -3 -119 -3
-119 -103 119 c-57 65 -107 119 -113 119 -5 0 -9 -73 -9 -180z" />
        <path d="M3163 945 c-123 -74 -118 -252 9 -314 77 -37 167 -25 231 31 l28 24
-24 13 c-21 11 -28 9 -62 -13 -93 -64 -215 -6 -215 101 1 122 141 177 235 92
17 -15 23 -16 38 -4 16 11 17 16 5 34 -38 61 -170 80 -245 36z" />
        <path d="M3509 966 c-2 -2 -3 -83 -1 -180 l3 -176 99 0 c100 0 100 0 100 25 0
24 -2 25 -75 25 l-75 0 0 60 0 60 45 0 c41 0 45 2 45 25 0 23 -4 25 -45 25
l-45 0 0 40 0 39 78 3 c76 3 77 3 80 31 l3 27 -104 0 c-57 0 -106 -2 -108 -4z" />
        <path d="M1485 518 c-45 -75 -158 -177 -245 -221 -127 -64 -157 -67 -687 -67
l-473 0 -32 -29 c-29 -26 -33 -35 -33 -81 0 -46 4 -55 33 -81 l34 -30 511 4
c481 3 516 5 582 24 97 29 154 50 192 73 22 13 43 17 65 14 42 -7 88 26 88 63
0 17 16 41 49 74 80 79 192 263 175 290 -14 23 -42 7 -58 -32 -25 -61 -81
-145 -138 -205 -44 -47 -54 -53 -88 -51 -47 2 -80 -24 -80 -63 0 -24 -9 -31
-79 -64 -152 -71 -205 -77 -743 -74 l-472 3 -16 28 c-13 24 -13 30 0 55 l16
27 504 6 c473 5 509 6 565 26 164 55 301 163 381 299 l24 41 -23 10 c-20 10
-25 6 -52 -39z" />
        <path d="M1260 519 c-25 -22 -66 -51 -92 -65 -99 -51 -132 -54 -550 -54 l-388
0 0 -25 0 -25 388 0 c425 0 461 4 572 60 33 17 81 50 106 75 40 37 45 47 34
60 -17 20 -19 20 -70 -26z" />
        <path d="M39 441 c-40 -41 -40 -91 0 -132 43 -42 89 -40 130 6 34 39 38 60 19
100 -26 58 -103 71 -149 26z m95 -37 c21 -21 20 -37 -4 -59 -41 -37 -97 24
-58 63 17 17 44 15 62 -4z" />
    </g>
</g>
</svg>