<?xml version="1.0" encoding="iso-8859-1"?>
<!-- Generator: Adobe Illustrator 19.0.0, SVG Export Plug-In . SVG Version: 6.00 Build 0)  -->
<svg version="1.1" id="Capa_1" xmlns="http://www.w3.org/2000/svg" xmlns:xlink="http://www.w3.org/1999/xlink" x="0px" y="0px"
	 viewBox="0 0 512 512" style="enable-background:new 0 0 512 512;" xml:space="preserve">
<g>
	<g>
		<path d="M256,0C114.848,0,0,114.848,0,256s114.848,256,256,256s256-114.848,256-256S397.152,0,256,0z M256,480
			C132.48,480,32,379.52,32,256S132.48,32,256,32s224,100.48,224,224S379.52,480,256,480z"/>
	</g>
</g>
<g>
	<g>
		<path d="M160,144c-26.464,0-48,21.536-48,48s21.536,48,48,48s48-21.536,48-48S186.464,144,160,144z M160,208
			c-8.832,0-16-7.168-16-16c0-8.832,7.168-16,16-16c8.832,0,16,7.168,16,16C176,200.832,168.832,208,160,208z"/>
	</g>
</g>
<g>
	<g>
		<path d="M352,144c-26.464,0-48,21.536-48,48s21.536,48,48,48s48-21.536,48-48S378.464,144,352,144z M352,208
			c-8.832,0-16-7.168-16-16c0-8.832,7.168-16,16-16c8.832,0,16,7.168,16,16C368,200.832,360.832,208,352,208z"/>
	</g>
</g>
<g>
	<g>
		<path d="M336,352H176c-8.832,0-16,7.168-16,16c0,8.832,7.168,16,16,16h160c8.832,0,16-7.168,16-16
			C352,359.168,344.832,352,336,352z"/>
	</g>
</g>
<g>
</g>
<g>
</g>
<g>
</g>
<g>
</g>
<g>
</g>
<g>
</g>
<g>
</g>
<g>
</g>
<g>
</g>
<g>
</g>
<g>
</g>
<g>
</g>
<g>
</g>
<g>
</g>
<g>
</g>
</svg>
