<svg width="512" height="512" viewBox="0 0 512 512" fill="none" xmlns="http://www.w3.org/2000/svg">
<path d="M256 512C114.84 512 0 397.16 0 256C0 114.84 114.84 0 256 0C397.16 0 512 114.84 512 256C512 397.16 397.16 512 256 512Z" fill="#FE0050"/>
<path d="M256 0V512C397.16 512 512 397.16 512 256C512 114.84 397.16 0 256 0Z" fill="#E10555"/>
<path d="M256 427C161.711 427 85 350.289 85 256C85 161.711 161.711 85 256 85C350.289 85 427 161.711 427 256C427 350.289 350.289 427 256 427Z" fill="#D9E7F3"/>
<path d="M256 85V427C350.289 427 427 350.289 427 256C427 161.711 350.289 85 256 85Z" fill="#C8D4DF"/>
<path d="M256 337C211.336 337 175 300.664 175 256C175 211.336 211.336 175 256 175C300.664 175 337 211.336 337 256C337 300.664 300.664 337 256 337Z" fill="#FE0050"/>
<path d="M256 175V337C300.664 337 337 300.664 337 256C337 211.336 300.664 175 256 175Z" fill="#E10555"/>
<path d="M256 271C252.16 271 248.32 269.535 245.395 266.605C239.535 260.75 239.535 251.25 245.395 245.395L355.703 135.086C361.559 129.227 371.059 129.227 376.914 135.086C382.773 140.941 382.773 150.438 376.914 156.297L266.605 266.605C263.68 269.535 259.84 271 256 271V271Z" fill="#2D2D55"/>
<path d="M376.914 135.086L245.395 266.605C248.32 269.535 252.16 271 256 271C259.84 271 263.68 269.535 266.605 266.605L376.914 156.297C382.773 150.441 382.773 140.941 376.914 135.086V135.086Z" fill="#0A0A48"/>
<path d="M425 165.641C424.582 165.641 424.16 165.621 423.738 165.59L365.051 160.641C357.762 160.023 351.977 154.242 351.363 146.953L346.41 88.2616C346.039 83.8593 347.629 79.5194 350.754 76.3944L414.391 12.7577C418.52 8.62878 424.668 7.26941 430.152 9.27722C435.633 11.2811 439.453 16.285 439.945 22.1014L443.828 68.1678L489.898 72.0546C495.715 72.5468 500.719 76.3671 502.727 81.8514C504.731 87.3319 503.371 93.4803 499.242 97.6093L435.606 161.246C432.781 164.07 428.961 165.641 425 165.641Z" fill="#FFC300"/>
<path d="M489.898 72.0547L443.832 68.168L355.703 156.297C358.137 158.73 361.402 160.332 365.047 160.641L423.738 165.59C424.16 165.621 424.578 165.641 425 165.641C428.961 165.641 432.781 164.07 435.605 161.246L499.242 97.6094C503.371 93.4805 504.73 87.332 502.727 81.8477C500.719 76.3672 495.715 72.5469 489.898 72.0547V72.0547Z" fill="#FAB400"/>
</svg>
